<svg xmlns="http://www.w3.org/2000/svg" width="167.211" height="50" viewBox="0 0 167.211 50">
  <path id="BBVA_2019" d="M30.326,26.5a15.256,15.256,0,0,1,1.911.821,10.388,10.388,0,0,1,3.28,3.006,12.492,12.492,0,0,1,1.638,6.555Q37.154,50,21.307,50H.821A.726.726,0,0,1,0,49.179V7.1a.726.726,0,0,1,.821-.821H22.407a13.514,13.514,0,0,1,9.287,3.143,10.6,10.6,0,0,1,3.554,8.334,10.348,10.348,0,0,1-1.364,5.328A8.525,8.525,0,0,1,30.326,26.5ZM21.038,43.714q4.644,0,6.829-1.5t2.185-5.191q0-3.688-2.185-5.191t-6.829-1.5H8.2c-.731,0-1.095.274-1.095.821V42.9c0,.547.363.821,1.095.821H21.038ZM8.2,12.567a.726.726,0,0,0-.821.821v9.835a.726.726,0,0,0,.821.821H20.765q7.1,0,7.1-5.739t-7.1-5.739H8.2ZM74.592,26.5a6.911,6.911,0,0,1,1.638.821,7.592,7.592,0,0,1,3.28,3.006,11.146,11.146,0,0,1,1.911,6.555Q81.42,50,65.573,50H45.083a.726.726,0,0,1-.821-.821V7.1a.726.726,0,0,1,.821-.821H66.668a13.66,13.66,0,0,1,9.155,3.143,10.41,10.41,0,0,1,3.69,8.334,10.348,10.348,0,0,1-1.364,5.328A8.58,8.58,0,0,1,74.592,26.5ZM52.185,12.567a.726.726,0,0,0-.821.821v9.835a.726.726,0,0,0,.821.821H65.026q7.1,0,7.1-5.739t-7.1-5.739H52.185ZM65.3,43.714q4.644,0,6.829-1.5t2.185-5.191q0-3.688-2.185-5.191T65.3,30.33H52.185a.726.726,0,0,0-.821.821V42.9a.726.726,0,0,0,.821.821H65.3ZM120.491,6.829c.179-.363.363-.547.547-.547h7.1a.811.811,0,0,1,.547.274.346.346,0,0,1,0,.547L106.012,49.726a.992.992,0,0,1-1.369,0L81.968,7.1a.44.44,0,0,1-.137-.547c.09-.179.316-.274.684-.274h6.829a.882.882,0,0,1,.821.547l14.479,27.324c0,.184.179.274.547.274a1.114,1.114,0,0,0,.821-.274Zm8.2,36.343a.875.875,0,0,1-.821.547h-7.1a.433.433,0,0,1-.411-.274,1.162,1.162,0,0,1-.137-.547L142.9.274A1.118,1.118,0,0,1,143.719,0a1.134,1.134,0,0,1,.821.274L167.211,42.9a1.22,1.22,0,0,1-.137.547.442.442,0,0,1-.411.274h-7.1a.866.866,0,0,1-.821-.547L144.53,15.847a.882.882,0,0,0-.821-.547.873.873,0,0,0-.821.547Z" fill="#fff"/>
</svg>
